{"title":"War.Room.2015.CAM.XVID.AC3.Hive-CM8","uid":12499466,"size":1476985706,"categoryP":"video","categoryS":"movies","magnet":"?xt=urn:btih:81923f4575f068d7a90a54a82ddd0f95374ddee1&amp;dn=War.Room.2015.CAM.XVID.AC3.Hive-CM8&amp;tr=udp%3A%2F%2Ftracker.leechers-paradise.org%3A6969&amp;tr=udp%3A%2F%2Fzer0day.ch%3A1337&amp;tr=udp%3A%2F%2Fopen.demonii.com%3A1337&amp;tr=udp%3A%2F%2Ftracker.coppersurfer.tk%3A6969&amp;tr=udp%3A%2F%2Fexodus.desync.com%3A6969","seeders":10,"leechers":0,"uploader":"xxxlavalxxx","files":4,"time":1443346481,"description":"http://extraimago.com/image/dEp\r\n \nhttp://www.imdb.com/title/tt3832914/\r\n\r\n\r\nA seemingly perfect family looks to fix their problems with the help of Miss Clara, an older, wiser woman.\r\n\r\nDirector: Alex Kendrick\r\nWriters: Alex Kendrick, Stephen Kendrick\r\nStars: Priscilla C. Shirer, T.C. Stallings, Karen Abercrombie \r\nGenres: Drama\r\nCountry: USA\r\nLanguage: English\r\n\r\n\r\nWar.Room.2015.CAM.XVID.AC3.Hive-CM8\r\n\r\nThx Hive\r\n\r\nCM8 Doing It Right The First Time\r\n\r\nSource: War Room 2015 720p HDCAM x264 VCTRY\r\nthx\r\n\r\nNotes:\r\n\r\nMovie ran limited in usa, this is the first and looks like the only cam around.\r\nits not the greatest, but i have seen worse, maybe not for a big screen, but its still an ok-watch for those who want to see it.\r\nretail date is not set, no word of a web-dl mentioned next month, so take it or leave it. check sample\r\n\r\nEncode:\r\n\r\nSource was ok but badly out of sync, got asked if i can lipsync it, yeah i can\r\nfixed ar, fixed perspective as good as possible, video is a bit narrow cause chairs have been cropped at bottom\r\nvideo is nearly steady whole movie, only at 7min mark its aimed a bit too low for 2 mins, other than that its straight.\r\n\r\naudio i cleaned up and tweaked, everything is understandable and synced to my video\r\nfor the rating i would say video 4, audio maybe 5\r\noh and have something good coming soon :lol: did anyone really care when they read that\r\n\r\nenjoy\r\n\r\nVideo: 720x240 @bitrate ~1500\r\nAudio: English Mic Stereo\r\nSample: yes included\r\n\r\n\r\n \nhttp://www.imdb.com/title/tt3832914/\r\n\r\n\r\nGeneral\r\nComplete name                  : War.Room.2015.CAM.XVID.AC3.Hive-CM8.avi\r\nFormat                         : AVI\r\nFormat/Info                    : Audio Video Interleave\r\nFile size                      : 1.36 GiB\r\nDuration                       : 1h 48mn\r\nOverall bit rate               : 1 793 Kbps\r\nWriting application            : Nandub v1.0rc2\r\nWriting library                : Nandub build 1853/release\r\n\r\nVideo\r\nID                             : 0\r\nFormat                         : MPEG-4 Visual\r\nFormat profile                 : Advanced   \r\nFormat settings, BVOP          : 2\r\nFormat settings, QPel          : Yes\r\nFormat settings, GMC           : No warppoints\r\nFormat settings, Matrix        : Default (H.263)\r\nMuxing mode                    : Packed bitstream\r\nCodec ID                       : XVID\r\nCodec ID/Hint                  : XviD\r\nDuration                       : 1h 48mn\r\nBit rate                       : 1 525 Kbps\r\nWidth                          : 720 pixels\r\nHeight                         : 240 pixels\r\nDisplay aspect ratio           : 3.000\r\nFrame rate                     : 29.970 fps\r\nColor space                    : YUV\r\nChroma subsampling             : 4:2:0\r\nBit depth                      : 8 bits\r\nScan type                      : Progressive\r\nCompression mode               : Lossy\r\nBits/(Pixel*Frame)             : 0.295\r\nStream size                    : 1.16 GiB (85%)\r\nWriting library                : XviD 1.2.1 (UTC 2008-12-04)\r\n\r\nAudio\r\nID                             : 1\r\nFormat                         : AC-3\r\nFormat/Info                    : Audio Coding 3\r\nMode extension                 : CM (complete main)\r\nFormat settings, Endianness    : Big\r\nCodec ID                       : 2000\r\nDuration                       : 1h 48mn\r\nBit rate mode                  : Constant\r\nBit rate                       : 256 Kbps\r\nChannel(s)                     : 2 channels\r\nChannel positions              : Front: L R\r\nSampling rate                  : 48.0 KHz\r\nBit depth                      : 16 bits\r\nCompression mode               : Lossy\r\nStream size                    : 199 MiB (14%)\r\nAlignment                      : Split accross interleaves\r\nInterleave, duration           : 33 ms (1.00 video frame)\r\nInterleave, preload duration   : 500 ms\r\n\r\n\r\nGreetz\r\n\r\nSugarB,iNCOMiNG,Izzy,MenaceIISociety,jiinx,SiMPLE,CherryBomb\r\nranbailey,ViSiON,YanKeeS,COPYxRIGHT,THC,VAiN,ACAB,DRs\r\nLKRG,Kingstoner,ACAB,SiMPLE,TiTAN\r\nUnevano,BigVik,Rapeseed,SAFC,goldadvance,KaN1vE,Pinnz,Wayne,HiGH\r\nSeeN,jtr,Limey,ICONiK,TED,smittyman,rkofan,mrtoke09 (ya whinging old man here ya go lol )\r\nMr Hive\r\n\r\na special thanks to the office , toddy and megs for letting ted be shit faced and not kick him out haha\r\n\r\n\r\nLOOKING FOR ANYTHING YOU WANT TO LOOK AND SOUND BETTER\r\n\r\nCOME FIND US WE DONT BITE \r\n  \r\n\r\n \nhttp://extraimago.com/image/dEr \nhttp://extraimago.com/image/dEG \nhttp://extraimago.com/image/dEP \nhttp://extraimago.com/image/dEX","torrent":{"xt":"urn:btih:81923f4575f068d7a90a54a82ddd0f95374ddee1","amp;dn":"War.Room.2015.CAM.XVID.AC3.Hive-CM8","amp;tr":["udp%3A%2F%2Ftracker.leechers-paradise.org%3A6969","udp%3A%2F%2Fzer0day.ch%3A1337","udp%3A%2F%2Fopen.demonii.com%3A1337","udp%3A%2F%2Ftracker.coppersurfer.tk%3A6969","udp%3A%2F%2Fexodus.desync.com%3A6969"],"infoHash":"81923f4575f068d7a90a54a82ddd0f95374ddee1","infoHashBuffer":{"type":"Buffer","data":[129,146,63,69,117,240,104,215,169,10,84,168,45,221,15,149,55,77,222,225]},"announce":[],"urlList":[]}}